<?xml version="1.0" encoding="UTF-8"?>
<svg width="342px" height="566px" viewBox="0 0 342 566" version="1.1" xmlns="http://www.w3.org/2000/svg" xmlns:xlink="http://www.w3.org/1999/xlink">
    <!-- Generator: Sketch 64 (93537) - https://sketch.com -->
    <title>Group</title>
    <desc>Created with Sketch.</desc>
    <g id="Screens" stroke="none" stroke-width="1" fill="none" fill-rule="evenodd">
        <g id="5.2" transform="translate(-17.000000, -115.000000)" fill="#FFFFFF" fill-rule="nonzero">
            <g id="Group" transform="translate(9.000000, 65.000000)">
                <path d="M90.93,93 L90.93,79.14 L95.43,79.14 C105.03,79.14 111.87,74.64 111.87,64.98 C111.87,55.86 105.27,51.42 94.53,51.42 L81.09,51.42 L81.09,93 L90.93,93 Z M94.59,72.06 L90.93,72.06 L90.93,58.44 L94.41,58.44 C99.27,58.44 101.73,60.54 101.73,64.98 C101.73,70.2 99.03,72.06 94.59,72.06 Z M142.443333,93 L143.463333,85.2 L127.263333,85.2 L127.263333,51.42 L117.423333,51.42 L117.423333,93 L142.443333,93 Z M174.036667,93 L174.036667,85.92 L158.376667,85.92 L158.376667,75.3 L171.156667,75.3 L171.156667,68.4 L158.376667,68.4 L158.376667,58.44 L173.016667,58.44 L174.036667,51.42 L148.536667,51.42 L148.536667,93 L174.036667,93 Z M185.95,93 L188.05,84.06 L200.17,84.06 L202.33,93 L212.77,93 L200.23,51.42 L188.29,51.42 L175.75,93 L185.95,93 Z M198.49,76.92 L189.73,76.92 L194.11,58.56 L198.49,76.92 Z M228.583333,94.02 C238.963333,94.02 245.083333,88.62 245.083333,80.88 C245.083333,73.2 240.583333,69.96 232.723333,67.44 C226.243333,65.4 224.683333,64.32 224.683333,61.68 C224.683333,59.04 226.843333,57.6 230.263333,57.6 C233.623333,57.6 236.503333,58.74 239.383333,61.08 L243.943333,55.74 C240.283333,52.26 235.903333,50.4 229.543333,50.4 C220.903333,50.4 214.543333,55.08 214.543333,62.4 C214.543333,68.58 217.963333,72.42 227.263333,75.3 C233.323333,77.16 234.883333,78.54 234.883333,81.6 C234.883333,84.78 232.363333,86.7 228.283333,86.7 C224.143333,86.7 220.843333,85.2 217.783333,82.62 L212.803333,88.08 C216.223333,91.38 221.383333,94.02 228.583333,94.02 Z M276.316667,93 L276.316667,85.92 L260.656667,85.92 L260.656667,75.3 L273.436667,75.3 L273.436667,68.4 L260.656667,68.4 L260.656667,58.44 L275.296667,58.44 L276.316667,51.42 L250.816667,51.42 L250.816667,93 L276.316667,93 Z M122.523333,179 L122.523333,137.42 L112.683333,137.42 L112.683333,179 L122.523333,179 Z M147.483333,179 L133.143333,156.08 L146.403333,137.42 L136.023333,137.42 L122.823333,156.8 L136.083333,179 L147.483333,179 Z M176.496667,179 L176.496667,171.92 L160.836667,171.92 L160.836667,161.3 L173.616667,161.3 L173.616667,154.4 L160.836667,154.4 L160.836667,144.44 L175.476667,144.44 L176.496667,137.42 L150.996667,137.42 L150.996667,179 L176.496667,179 Z M208.39,179 L208.39,171.92 L192.73,171.92 L192.73,161.3 L205.51,161.3 L205.51,154.4 L192.73,154.4 L192.73,144.44 L207.37,144.44 L208.39,137.42 L182.89,137.42 L182.89,179 L208.39,179 Z M224.623333,179 L224.623333,165.14 L229.123333,165.14 C238.723333,165.14 245.563333,160.64 245.563333,150.98 C245.563333,141.86 238.963333,137.42 228.223333,137.42 L214.783333,137.42 L214.783333,179 L224.623333,179 Z M228.283333,158.06 L224.623333,158.06 L224.623333,144.44 L228.103333,144.44 C232.963333,144.44 235.423333,146.54 235.423333,150.98 C235.423333,156.2 232.723333,158.06 228.283333,158.06 Z M124.593333,265 L124.593333,249.4 L137.913333,223.42 L127.533333,223.42 L119.853333,241.72 L112.173333,223.42 L101.433333,223.42 L114.753333,249.46 L114.753333,265 L124.593333,265 Z M156.306667,266.02 C168.066667,266.02 175.086667,257.8 175.086667,244.18 C175.086667,230.32 168.066667,222.4 156.306667,222.4 C144.606667,222.4 137.586667,230.62 137.586667,244.18 C137.586667,258.04 144.606667,266.02 156.306667,266.02 Z M156.306667,258.82 C150.906667,258.82 147.906667,254.74 147.906667,244.18 C147.906667,233.68 150.786667,229.6 156.306667,229.6 C161.886667,229.6 164.766667,233.68 164.766667,244.18 C164.766667,254.74 161.946667,258.82 156.306667,258.82 Z M196.9,266.02 C207.76,266.02 213.16,259.6 213.16,251.2 L213.16,223.42 L203.32,223.42 L203.32,250.78 C203.32,256.12 201.4,258.7 196.9,258.7 C192.46,258.7 190.54,256.12 190.54,250.78 L190.54,223.42 L180.7,223.42 L180.7,251.2 C180.7,259.96 186.04,266.02 196.9,266.02 Z M230.533333,265 L230.533333,249.1 L234.373333,249.1 L242.893333,265 L253.993333,265 L243.433333,247.3 C248.833333,244.84 251.413333,241.54 251.413333,236.08 C251.413333,227.44 245.593333,223.42 234.313333,223.42 L220.693333,223.42 L220.693333,265 L230.533333,265 Z M234.673333,242.32 L230.533333,242.32 L230.533333,230.32 L234.073333,230.32 C238.933333,230.32 241.273333,232.06 241.273333,236.08 C241.273333,240.46 238.993333,242.32 234.673333,242.32 Z M62.8766667,351 C73.4966667,351 83.5766667,346.74 83.5766667,330 C83.5766667,312.84 73.0766667,309.42 61.9766667,309.42 L50.3966667,309.42 L50.3966667,351 L62.8766667,351 Z M63.4766667,343.86 L60.2366667,343.86 L60.2366667,316.56 L63.3566667,316.56 C69.1166667,316.56 73.3766667,318.84 73.3766667,330 C73.3766667,341.04 69.4166667,343.86 63.4766667,343.86 Z M99.63,351 L99.63,309.42 L89.79,309.42 L89.79,351 L99.63,351 Z M120.123333,352.02 C130.503333,352.02 136.623333,346.62 136.623333,338.88 C136.623333,331.2 132.123333,327.96 124.263333,325.44 C117.783333,323.4 116.223333,322.32 116.223333,319.68 C116.223333,317.04 118.383333,315.6 121.803333,315.6 C125.163333,315.6 128.043333,316.74 130.923333,319.08 L135.483333,313.74 C131.823333,310.26 127.443333,308.4 121.083333,308.4 C112.443333,308.4 106.083333,313.08 106.083333,320.4 C106.083333,326.58 109.503333,330.42 118.803333,333.3 C124.863333,335.16 126.423333,336.54 126.423333,339.6 C126.423333,342.78 123.903333,344.7 119.823333,344.7 C115.683333,344.7 112.383333,343.2 109.323333,340.62 L104.343333,346.08 C107.763333,349.38 112.923333,352.02 120.123333,352.02 Z M158.316667,351 L158.316667,316.98 L168.576667,316.98 L169.536667,309.42 L137.736667,309.42 L137.736667,316.98 L148.476667,316.98 L148.476667,351 L158.316667,351 Z M176.35,351 L178.45,342.06 L190.57,342.06 L192.73,351 L203.17,351 L190.63,309.42 L178.69,309.42 L166.15,351 L176.35,351 Z M188.89,334.92 L180.13,334.92 L184.51,316.56 L188.89,334.92 Z M215.323333,351 L215.323333,335.76 C215.323333,328.08 214.543333,322.56 214.063333,318.78 L226.063333,351 L238.603333,351 L238.603333,309.42 L229.783333,309.42 L229.783333,326.22 C229.783333,332.88 230.563333,338.34 231.103333,341.7 L218.803333,309.42 L206.563333,309.42 L206.563333,351 L215.323333,351 Z M263.776667,352.02 C269.536667,352.02 274.036667,349.44 276.796667,346.68 L272.416667,341.04 C269.956667,342.9 267.556667,344.4 264.256667,344.4 C258.736667,344.4 255.076667,340.14 255.076667,330.12 C255.076667,319.92 258.796667,315.66 264.136667,315.66 C266.956667,315.66 269.296667,316.74 271.636667,318.54 L276.316667,312.96 C272.836667,310.02 269.056667,308.4 263.656667,308.4 C252.856667,308.4 244.756667,316.2 244.756667,330.12 C244.756667,344.34 252.376667,352.02 263.776667,352.02 Z M307.01,351 L307.01,343.92 L291.35,343.92 L291.35,333.3 L304.13,333.3 L304.13,326.4 L291.35,326.4 L291.35,316.44 L305.99,316.44 L307.01,309.42 L281.51,309.42 L281.51,351 L307.01,351 Z" id="PLEASEKEEPYOURDISTANCE"></path>
                <path d="M147.84,492 L147.84,410.88 L130.92,410.88 L103.56,427.44 L111.84,440.04 L129.24,429.36 L129.24,492 L147.84,492 Z M172.746667,494.04 C178.746667,494.04 183.546667,489.12 183.546667,483.12 C183.546667,477.24 178.746667,472.32 172.746667,472.32 C166.626667,472.32 161.826667,477.24 161.826667,483.12 C161.826667,489.12 166.626667,494.04 172.746667,494.04 Z M217.573333,494.04 C236.893333,494.04 249.373333,482.4 249.373333,465.24 C249.373333,448.44 239.413333,438.84 226.093333,438.84 C222.253333,438.84 218.173333,439.56 214.093333,441.48 L214.093333,424.44 L243.493333,424.44 L245.653333,410.88 L195.973333,410.88 L195.973333,454.68 L208.813333,454.68 C212.533333,452.64 215.293333,451.8 218.533333,451.8 C225.253333,451.8 229.933333,455.28 229.933333,465.36 C229.933333,474.72 225.013333,479.76 216.853333,479.76 C210.253333,479.76 205.333333,476.88 201.133333,471.96 L190.573333,481.8 C196.693333,488.88 205.213333,494.04 217.573333,494.04 Z" id="1.5"></path>
                <path d="M305.067864,513 L349.803296,579.323006 L330.735432,592.184443 L317.249104,572.190751 C279.483877,599.33291 243.846276,615.092221 178.901648,615.092221 C113.867635,615.092221 78.2213761,599.2895 40.3982469,572.078616 L40.554,572.19 L27.0678642,592.184443 L8,579.323006 L52.7354323,513 L71.8032964,525.861437 L59.0827448,544.720797 C95.2038388,569.668642 128.64549,581.330317 178.901648,581.330317 C229.241784,581.330317 262.711172,569.629636 298.901648,544.595623 L298.72,544.72 L286,525.861437 L305.067864,513 Z" id="Combined-Shape" transform="translate(178.901648, 564.046111) rotate(-180.000000) translate(-178.901648, -564.046111) "></path>
            </g>
        </g>
    </g>
</svg>