<?xml version="1.0" encoding="UTF-8"?>
<svg width="184px" height="209px" viewBox="0 0 184 209" version="1.1" xmlns="http://www.w3.org/2000/svg" xmlns:xlink="http://www.w3.org/1999/xlink">
    <!-- Generator: Sketch 53.2 (72643) - https://sketchapp.com -->
    <title>Group</title>
    <desc>Created with Sketch.</desc>
    <g id="Screens" stroke="none" stroke-width="1" fill="none" fill-rule="evenodd">
        <g id="Group" transform="translate(0.000000, 0.000000)" fill="#FFFFFF" fill-rule="nonzero">
            <path d="M178.6124,87.0455092 C178.6124,113.515362 167.04363,138.152343 147.899514,154.759753 C163.280896,165.415909 175.65708,180.244636 183.307245,197.642572 C185.087296,201.703577 183.319715,206.472231 179.348113,208.292352 C178.300658,208.770493 177.206441,209 176.130929,209 C173.12573,209 170.25458,207.234068 168.939026,204.244097 C161.634895,187.623936 149.22442,173.770615 133.802511,164.701886 C131.61096,165.938675 129.385117,167.118088 127.065752,168.169997 C126.027649,168.641762 124.945902,168.868082 123.882859,168.868082 C120.862073,168.868082 117.981571,167.086212 116.681604,164.086678 C114.914023,160.02886 116.703426,155.266582 120.67191,153.462399 C123.808041,152.031165 126.810123,150.379987 129.650098,148.547115 C129.759208,148.483363 129.862083,148.403673 129.977428,148.336733 C150.234466,135.136871 162.866279,112.087316 162.866279,87.0455092 C162.866279,82.6051786 166.392088,79 170.737781,79 C175.089708,79 178.6124,82.601991 178.6124,87.0455092 Z M4.38392161,204.155081 C0.46966866,202.19096 -1.11863286,197.408342 0.836924149,193.470642 C8.58695666,177.890087 20.4364393,164.503799 34.7594034,154.736789 C15.6307286,138.450034 3.81263529,114.246893 3.81263529,87.7801273 C3.81263529,39.3769993 43.0179435,0 91.210025,0 L106.214138,0.277436024 C110.596092,0.356253076 114.077172,3.98499016 113.998699,8.38298167 C113.913948,12.7305303 110.388923,16.1984806 106.079164,16.1984806 C106.025802,16.1984806 105.975579,16.1984806 105.922217,16.1984806 L91.059356,15.9241972 C51.7567408,15.9273499 19.6611222,48.1603716 19.6611222,87.78328 C19.6611222,120.517578 41.6650622,149.11871 73.1611441,157.3346 C77.4018463,158.438038 79.9412454,162.78874 78.8457568,167.038555 C77.9166318,170.62946 74.6960837,173.009735 71.1741977,173.009735 C70.5181601,173.009735 69.8432889,172.927765 69.1746956,172.751215 C61.9739769,170.872216 55.168764,168.116772 48.8814756,164.620448 C34.436093,172.990819 22.4798865,185.592089 15.0154972,200.595703 C13.6280876,203.382674 10.8281568,205 7.91836333,205 C6.72556772,205 5.52021637,204.725717 4.38392161,204.155081 Z M65.0972953,112.397372 C61.5778985,109.646829 60.9656902,104.586084 63.7350516,101.085682 C66.481976,97.601235 71.5559332,96.9694396 75.0593036,99.694456 C76.6779697,100.919756 91.0215949,111.060391 107.185819,99.5157664 C110.8174,96.9151946 115.875331,97.7448248 118.478018,101.363289 C121.087115,104.975372 120.260153,110.01059 116.622161,112.60478 C107.971112,118.788716 99.214289,121 91.3036595,121 C79.847991,121 70.1616367,116.35407 65.0972953,112.397372 Z M79,70.0015149 C79,74.9643158 74.9693345,79 70.0075821,79 C65.0397641,79 61,74.9643158 61,70.0015149 C61,65.038714 65.0397641,61 70.0075821,61 C74.9663016,61 79,65.038714 79,70.0015149 Z M114.004548,61 C118.964629,61 123,65.038714 123,70.0015149 C123,74.9643158 118.964629,79 114.004548,79 C109.038403,79 105,74.9643158 105,70.0015149 C105,65.038714 109.038403,61 114.004548,61 Z" id="Near-people"></path>
        </g>
    </g>
</svg>