<?xml version="1.0" encoding="UTF-8"?>
<svg width="342px" height="170px" viewBox="0 0 342 170" version="1.1" xmlns="http://www.w3.org/2000/svg" xmlns:xlink="http://www.w3.org/1999/xlink">
    <!-- Generator: Sketch 64 (93537) - https://sketch.com -->
    <title>Group 3</title>
    <desc>Created with Sketch.</desc>
    <g id="Screens" stroke="none" stroke-width="1" fill="none" fill-rule="evenodd">
        <g id="5" transform="translate(-17.000000, -475.000000)" fill="#FFFFFF" fill-rule="nonzero">
            <g id="Group-2" transform="translate(17.000000, 115.000000)">
                <g id="Group-3" transform="translate(0.098352, 360.659479)">
                    <path d="M139.741648,81.3405206 L139.741648,0.220520612 L122.821648,0.220520612 L95.4616482,16.7805206 L103.741648,29.3805206 L121.141648,18.7005206 L121.141648,81.3405206 L139.741648,81.3405206 Z M164.648315,83.3805206 C170.648315,83.3805206 175.448315,78.4605206 175.448315,72.4605206 C175.448315,66.5805206 170.648315,61.6605206 164.648315,61.6605206 C158.528315,61.6605206 153.728315,66.5805206 153.728315,72.4605206 C153.728315,78.4605206 158.528315,83.3805206 164.648315,83.3805206 Z M209.474982,83.3805206 C228.794982,83.3805206 241.274982,71.7405206 241.274982,54.5805206 C241.274982,37.7805206 231.314982,28.1805206 217.994982,28.1805206 C214.154982,28.1805206 210.074982,28.9005206 205.994982,30.8205206 L205.994982,13.7805206 L235.394982,13.7805206 L237.554982,0.220520612 L187.874982,0.220520612 L187.874982,44.0205206 L200.714982,44.0205206 C204.434982,41.9805206 207.194982,41.1405206 210.434982,41.1405206 C217.154982,41.1405206 221.834982,44.6205206 221.834982,54.7005206 C221.834982,64.0605206 216.914982,69.1005206 208.754982,69.1005206 C202.154982,69.1005206 197.234982,66.2205206 193.034982,61.3005206 L182.474982,71.1405206 C188.594982,78.2205206 197.114982,83.3805206 209.474982,83.3805206 Z" id="1.5"></path>
                    <path d="M297.067864,67.2482993 L341.803296,133.571305 L322.735432,146.432742 L309.249104,126.43905 C271.483877,153.58121 235.846276,169.340521 170.901648,169.340521 C105.867635,169.340521 70.2213761,153.5378 32.3982469,126.326915 L32.554,126.438299 L19.0678642,146.432742 L-9.59232693e-14,133.571305 L44.7354323,67.2482993 L63.8032964,80.1097361 L51.0827448,98.9690961 C87.2038388,123.916941 120.64549,135.578616 170.901648,135.578616 C221.241784,135.578616 254.711172,123.877936 290.901648,98.843922 L290.72,98.9682993 L278,80.1097361 L297.067864,67.2482993 Z" id="Combined-Shape"></path>
                </g>
            </g>
        </g>
    </g>
</svg>