<?xml version="1.0" encoding="UTF-8"?>
<svg width="342px" height="530px" viewBox="0 0 342 530" version="1.1" xmlns="http://www.w3.org/2000/svg" xmlns:xlink="http://www.w3.org/1999/xlink">
    <!-- Generator: Sketch 64 (93537) - https://sketch.com -->
    <title>Group 2</title>
    <desc>Created with Sketch.</desc>
    <g id="Screens" stroke="none" stroke-width="1" fill="none" fill-rule="evenodd">
        <g id="5" transform="translate(-17.000000, -115.000000)" fill="#FFFFFF" fill-rule="nonzero">
            <g id="Group-2" transform="translate(9.000000, 65.000000)">
                <path d="M88.5,93 L88.5,58.98 L98.76,58.98 L99.72,51.42 L67.92,51.42 L67.92,58.98 L78.66,58.98 L78.66,93 L88.5,93 Z M113.853333,93 L113.853333,75.18 L126.333333,75.18 L126.333333,93 L136.173333,93 L136.173333,51.42 L126.333333,51.42 L126.333333,67.5 L113.853333,67.5 L113.853333,51.42 L104.013333,51.42 L104.013333,93 L113.853333,93 Z M149.826667,93 L151.926667,84.06 L164.046667,84.06 L166.206667,93 L176.646667,93 L164.106667,51.42 L152.166667,51.42 L139.626667,93 L149.826667,93 Z M162.366667,76.92 L153.606667,76.92 L157.986667,58.56 L162.366667,76.92 Z M188.8,93 L188.8,77.76 C188.8,70.08 188.02,64.56 187.54,60.78 L199.54,93 L212.08,93 L212.08,51.42 L203.26,51.42 L203.26,68.22 C203.26,74.88 204.04,80.34 204.58,83.7 L192.28,51.42 L180.04,51.42 L180.04,93 L188.8,93 Z M229.993333,93 L229.993333,51.42 L220.153333,51.42 L220.153333,93 L229.993333,93 Z M254.953333,93 L240.613333,70.08 L253.873333,51.42 L243.493333,51.42 L230.293333,70.8 L243.553333,93 L254.953333,93 Z M270.286667,94.02 C280.666667,94.02 286.786667,88.62 286.786667,80.88 C286.786667,73.2 282.286667,69.96 274.426667,67.44 C267.946667,65.4 266.386667,64.32 266.386667,61.68 C266.386667,59.04 268.546667,57.6 271.966667,57.6 C275.326667,57.6 278.206667,58.74 281.086667,61.08 L285.646667,55.74 C281.986667,52.26 277.606667,50.4 271.246667,50.4 C262.606667,50.4 256.246667,55.08 256.246667,62.4 C256.246667,68.58 259.666667,72.42 268.966667,75.3 C275.026667,77.16 276.586667,78.54 276.586667,81.6 C276.586667,84.78 274.066667,86.7 269.986667,86.7 C265.846667,86.7 262.546667,85.2 259.486667,82.62 L254.506667,88.08 C257.926667,91.38 263.086667,94.02 270.286667,94.02 Z M137.96,179 L137.96,162.5 L150.08,162.5 L150.08,155.48 L137.96,155.48 L137.96,144.44 L151.88,144.44 L152.9,137.42 L128.12,137.42 L128.12,179 L137.96,179 Z M173.333333,180.02 C185.093333,180.02 192.113333,171.8 192.113333,158.18 C192.113333,144.32 185.093333,136.4 173.333333,136.4 C161.633333,136.4 154.613333,144.62 154.613333,158.18 C154.613333,172.04 161.633333,180.02 173.333333,180.02 Z M173.333333,172.82 C167.933333,172.82 164.933333,168.74 164.933333,158.18 C164.933333,147.68 167.813333,143.6 173.333333,143.6 C178.913333,143.6 181.793333,147.68 181.793333,158.18 C181.793333,168.74 178.973333,172.82 173.333333,172.82 Z M208.166667,179 L208.166667,163.1 L212.006667,163.1 L220.526667,179 L231.626667,179 L221.066667,161.3 C226.466667,158.84 229.046667,155.54 229.046667,150.08 C229.046667,141.44 223.226667,137.42 211.946667,137.42 L198.326667,137.42 L198.326667,179 L208.166667,179 Z M212.306667,156.32 L208.166667,156.32 L208.166667,144.32 L211.706667,144.32 C216.566667,144.32 218.906667,146.06 218.906667,150.08 C218.906667,154.46 216.626667,156.32 212.306667,156.32 Z M73.9933333,265 L73.9933333,223.42 L64.1533333,223.42 L64.1533333,265 L73.9933333,265 Z M98.9533333,265 L84.6133333,242.08 L97.8733333,223.42 L87.4933333,223.42 L74.2933333,242.8 L87.5533333,265 L98.9533333,265 Z M127.966667,265 L127.966667,257.92 L112.306667,257.92 L112.306667,247.3 L125.086667,247.3 L125.086667,240.4 L112.306667,240.4 L112.306667,230.44 L126.946667,230.44 L127.966667,223.42 L102.466667,223.42 L102.466667,265 L127.966667,265 Z M159.86,265 L159.86,257.92 L144.2,257.92 L144.2,247.3 L156.98,247.3 L156.98,240.4 L144.2,240.4 L144.2,230.44 L158.84,230.44 L159.86,223.42 L134.36,223.42 L134.36,265 L159.86,265 Z M176.093333,265 L176.093333,251.14 L180.593333,251.14 C190.193333,251.14 197.033333,246.64 197.033333,236.98 C197.033333,227.86 190.433333,223.42 179.693333,223.42 L166.253333,223.42 L166.253333,265 L176.093333,265 Z M179.753333,244.06 L176.093333,244.06 L176.093333,230.44 L179.573333,230.44 C184.433333,230.44 186.893333,232.54 186.893333,236.98 C186.893333,242.2 184.193333,244.06 179.753333,244.06 Z M212.426667,265 L212.426667,223.42 L202.586667,223.42 L202.586667,265 L212.426667,265 Z M229.26,265 L229.26,249.76 C229.26,242.08 228.48,236.56 228,232.78 L240,265 L252.54,265 L252.54,223.42 L243.72,223.42 L243.72,240.22 C243.72,246.88 244.5,252.34 245.04,255.7 L232.74,223.42 L220.5,223.42 L220.5,265 L229.26,265 Z M277.773333,266.02 C282.993333,266.02 288.393333,264.4 292.713333,261.64 L292.713333,241.06 L276.813333,241.06 L277.773333,248.02 L283.173333,248.02 L283.173333,257.44 C281.433333,258.4 279.573333,258.82 277.533333,258.82 C271.773333,258.82 268.893333,255.1 268.893333,244.18 C268.893333,233.86 273.213333,229.54 279.033333,229.54 C282.393333,229.54 284.673333,230.56 287.493333,232.72 L292.473333,227.5 C289.053333,224.5 284.673333,222.4 278.613333,222.4 C267.453333,222.4 258.693333,230.08 258.693333,244.18 C258.693333,258.4 265.053333,266.02 277.773333,266.02 Z M62.8766667,351 C73.4966667,351 83.5766667,346.74 83.5766667,330 C83.5766667,312.84 73.0766667,309.42 61.9766667,309.42 L50.3966667,309.42 L50.3966667,351 L62.8766667,351 Z M63.4766667,343.86 L60.2366667,343.86 L60.2366667,316.56 L63.3566667,316.56 C69.1166667,316.56 73.3766667,318.84 73.3766667,330 C73.3766667,341.04 69.4166667,343.86 63.4766667,343.86 Z M99.63,351 L99.63,309.42 L89.79,309.42 L89.79,351 L99.63,351 Z M120.123333,352.02 C130.503333,352.02 136.623333,346.62 136.623333,338.88 C136.623333,331.2 132.123333,327.96 124.263333,325.44 C117.783333,323.4 116.223333,322.32 116.223333,319.68 C116.223333,317.04 118.383333,315.6 121.803333,315.6 C125.163333,315.6 128.043333,316.74 130.923333,319.08 L135.483333,313.74 C131.823333,310.26 127.443333,308.4 121.083333,308.4 C112.443333,308.4 106.083333,313.08 106.083333,320.4 C106.083333,326.58 109.503333,330.42 118.803333,333.3 C124.863333,335.16 126.423333,336.54 126.423333,339.6 C126.423333,342.78 123.903333,344.7 119.823333,344.7 C115.683333,344.7 112.383333,343.2 109.323333,340.62 L104.343333,346.08 C107.763333,349.38 112.923333,352.02 120.123333,352.02 Z M158.316667,351 L158.316667,316.98 L168.576667,316.98 L169.536667,309.42 L137.736667,309.42 L137.736667,316.98 L148.476667,316.98 L148.476667,351 L158.316667,351 Z M176.35,351 L178.45,342.06 L190.57,342.06 L192.73,351 L203.17,351 L190.63,309.42 L178.69,309.42 L166.15,351 L176.35,351 Z M188.89,334.92 L180.13,334.92 L184.51,316.56 L188.89,334.92 Z M215.323333,351 L215.323333,335.76 C215.323333,328.08 214.543333,322.56 214.063333,318.78 L226.063333,351 L238.603333,351 L238.603333,309.42 L229.783333,309.42 L229.783333,326.22 C229.783333,332.88 230.563333,338.34 231.103333,341.7 L218.803333,309.42 L206.563333,309.42 L206.563333,351 L215.323333,351 Z M263.776667,352.02 C269.536667,352.02 274.036667,349.44 276.796667,346.68 L272.416667,341.04 C269.956667,342.9 267.556667,344.4 264.256667,344.4 C258.736667,344.4 255.076667,340.14 255.076667,330.12 C255.076667,319.92 258.796667,315.66 264.136667,315.66 C266.956667,315.66 269.296667,316.74 271.636667,318.54 L276.316667,312.96 C272.836667,310.02 269.056667,308.4 263.656667,308.4 C252.856667,308.4 244.756667,316.2 244.756667,330.12 C244.756667,344.34 252.376667,352.02 263.776667,352.02 Z M307.01,351 L307.01,343.92 L291.35,343.92 L291.35,333.3 L304.13,333.3 L304.13,326.4 L291.35,326.4 L291.35,316.44 L305.99,316.44 L307.01,309.42 L281.51,309.42 L281.51,351 L307.01,351 Z" id="THANKSFORKEEPINGDISTANCE"></path>
                <path d="M147.84,492 L147.84,410.88 L130.92,410.88 L103.56,427.44 L111.84,440.04 L129.24,429.36 L129.24,492 L147.84,492 Z M172.746667,494.04 C178.746667,494.04 183.546667,489.12 183.546667,483.12 C183.546667,477.24 178.746667,472.32 172.746667,472.32 C166.626667,472.32 161.826667,477.24 161.826667,483.12 C161.826667,489.12 166.626667,494.04 172.746667,494.04 Z M217.573333,494.04 C236.893333,494.04 249.373333,482.4 249.373333,465.24 C249.373333,448.44 239.413333,438.84 226.093333,438.84 C222.253333,438.84 218.173333,439.56 214.093333,441.48 L214.093333,424.44 L243.493333,424.44 L245.653333,410.88 L195.973333,410.88 L195.973333,454.68 L208.813333,454.68 C212.533333,452.64 215.293333,451.8 218.533333,451.8 C225.253333,451.8 229.933333,455.28 229.933333,465.36 C229.933333,474.72 225.013333,479.76 216.853333,479.76 C210.253333,479.76 205.333333,476.88 201.133333,471.96 L190.573333,481.8 C196.693333,488.88 205.213333,494.04 217.573333,494.04 Z" id="1.5"></path>
                <g id="Group" transform="translate(8.000000, 477.248299)">
                    <path d="M297.166216,0.659479388 L341.901648,66.9824852 L322.833784,79.843922 L309.347456,59.8502305 C271.582229,86.9923898 235.944628,102.751701 171,102.751701 C105.965986,102.751701 70.3197279,86.9489796 32.4965986,59.7380952 L32.6523518,59.8494794 L19.1662159,79.843922 L0.0983517768,66.9824852 L44.8337841,0.659479388 L63.9016482,13.5209162 L51.1810965,32.3802762 C87.3021906,57.3281213 120.743841,68.9897959 171,68.9897959 C221.340136,68.9897959 254.809524,57.2891156 291,32.255102 L290.818352,32.3794794 L278.098352,13.5209162 L297.166216,0.659479388 Z" id="Combined-Shape"></path>
                </g>
            </g>
        </g>
    </g>
</svg>