<?xml version="1.0" encoding="UTF-8"?>
<svg width="342px" height="206px" viewBox="0 0 342 206" version="1.1" xmlns="http://www.w3.org/2000/svg" xmlns:xlink="http://www.w3.org/1999/xlink">
    <!-- Generator: Sketch 64 (93537) - https://sketch.com -->
    <title>Group 2</title>
    <desc>Created with Sketch.</desc>
    <g id="Screens" stroke="none" stroke-width="1" fill="none" fill-rule="evenodd">
        <g id="5.2" transform="translate(-17.000000, -475.000000)" fill="#FFFFFF" fill-rule="nonzero">
            <g id="Group" transform="translate(17.000000, 115.000000)">
                <g id="Group-2" transform="translate(0.000000, 360.880000)">
                    <path d="M139.84,81.12 L139.84,0 L122.92,0 L95.56,16.56 L103.84,29.16 L121.24,18.48 L121.24,81.12 L139.84,81.12 Z M164.746667,83.16 C170.746667,83.16 175.546667,78.24 175.546667,72.24 C175.546667,66.36 170.746667,61.44 164.746667,61.44 C158.626667,61.44 153.826667,66.36 153.826667,72.24 C153.826667,78.24 158.626667,83.16 164.746667,83.16 Z M209.573333,83.16 C228.893333,83.16 241.373333,71.52 241.373333,54.36 C241.373333,37.56 231.413333,27.96 218.093333,27.96 C214.253333,27.96 210.173333,28.68 206.093333,30.6 L206.093333,13.56 L235.493333,13.56 L237.653333,0 L187.973333,0 L187.973333,43.8 L200.813333,43.8 C204.533333,41.76 207.293333,40.92 210.533333,40.92 C217.253333,40.92 221.933333,44.4 221.933333,54.48 C221.933333,63.84 217.013333,68.88 208.853333,68.88 C202.253333,68.88 197.333333,66 193.133333,61.08 L182.573333,70.92 C188.693333,78 197.213333,83.16 209.573333,83.16 Z" id="1.5"></path>
                    <path d="M297.067864,102.12 L341.803296,168.443006 L322.735432,181.304443 L309.249104,161.310751 C271.483877,188.45291 235.846276,204.212221 170.901648,204.212221 C105.867635,204.212221 70.2213761,188.4095 32.3982469,161.198616 L32.554,161.31 L19.0678642,181.304443 L-1.81188398e-13,168.443006 L44.7354323,102.12 L63.8032964,114.981437 L51.0827448,133.840797 C87.2038388,158.788642 120.64549,170.450317 170.901648,170.450317 C221.241784,170.450317 254.711172,158.749636 290.901648,133.715623 L290.72,133.84 L278,114.981437 L297.067864,102.12 Z" id="Combined-Shape" transform="translate(170.901648, 153.166111) rotate(-180.000000) translate(-170.901648, -153.166111) "></path>
                </g>
            </g>
        </g>
    </g>
</svg>